<svg width="16" height="16" viewBox="0 0 16 16" fill="none" xmlns="http://www.w3.org/2000/svg">
<g id="u:file-check-alt">
<path id="Vector" d="M7.27281 2.66659V2.39386H7.00008H3.66675C3.41761 2.39386 3.17867 2.49283 3.0025 2.669C2.82633 2.84517 2.72735 3.08411 2.72735 3.33325V12.6666C2.72735 12.9157 2.82633 13.1547 3.0025 13.3308C3.17867 13.507 3.41761 13.606 3.66675 13.606H7.66675C7.77123 13.606 7.87143 13.6475 7.94531 13.7214C8.01918 13.7952 8.06069 13.8954 8.06069 13.9999C8.06069 14.1044 8.01918 14.2046 7.94531 14.2785C7.87143 14.3524 7.77123 14.3939 7.66675 14.3939H3.66675C3.20865 14.3939 2.76931 14.2119 2.44538 13.888C2.12146 13.564 1.93948 13.1247 1.93948 12.6666V3.33325C1.93948 2.87515 2.12146 2.43581 2.44538 2.11189C2.76931 1.78796 3.20865 1.60598 3.66675 1.60598H7.67758C7.71487 1.61515 7.75089 1.62895 7.78481 1.64709L7.86777 1.69145L7.91721 1.68279C7.93847 1.69655 7.95855 1.71213 7.97719 1.72938L11.9706 5.72282C11.9893 5.74305 12.0061 5.76496 12.0207 5.78827V5.82455L12.0349 5.86686C12.0469 5.90261 12.0556 5.93942 12.0607 5.97678V5.97688V5.97704V5.9772V5.97736V5.97752V5.97768V5.97784V5.978V5.97815V5.97831V5.97846V5.97862V5.97877V5.97892V5.97908V5.97923V5.97938V5.97953V5.97968V5.97983V5.97997V5.98012V5.98027V5.98041V5.98056V5.9807V5.98084V5.98099V5.98113V5.98127V5.98141V5.98155V5.98169V5.98183V5.98197V5.9821V5.98224V5.98238V5.98251V5.98265V5.98278V5.98291V5.98304V5.98318V5.98331V5.98344V5.98357V5.98369V5.98382V5.98395V5.98408V5.9842V5.98433V5.98445V5.98458V5.9847V5.98482V5.98494V5.98507V5.98519V5.98531V5.98543V5.98555V5.98566V5.98578V5.9859V5.98601V5.98613V5.98624V5.98636V5.98647V5.98659V5.9867V5.98681V5.98692V5.98703V5.98714V5.98725V5.98736V5.98747V5.98757V5.98768V5.98779V5.98789V5.988V5.9881V5.9882V5.98831V5.98841V5.98851V5.98861V5.98871V5.98881V5.98891V5.98901V5.98911V5.98921V5.98931V5.9894V5.9895V5.98959V5.98969V5.98978V5.98988V5.98997V5.99006V5.99015V5.99024V5.99033V5.99043V5.99051V5.9906V5.99069V5.99078V5.99087V5.99095V5.99104V5.99113V5.99121V5.9913V5.99138V5.99146V5.99155V5.99163V5.99171V5.99179V5.99187V5.99195V5.99203V5.99211V5.99219V5.99227V5.99235V5.99242V5.9925V5.99257V5.99265V5.99272V5.9928V5.99287V5.99295V5.99302V5.99309V5.99316V5.99324V5.99331V5.99338V5.99345V5.99352V5.99358V5.99365V5.99372V5.99379V5.99385V5.99392V5.99399V5.99405V5.99412V5.99418V5.99425V5.99431V5.99437V5.99444V5.9945V5.99456V5.99462V5.99468V5.99474V5.9948V5.99486V5.99492V5.99498V5.99504V5.99509V5.99515V5.99521V5.99526V5.99532V5.99537V5.99543V5.99548V5.99554V5.99559V5.99564V5.9957V5.99575V5.9958V5.99585V5.9959V5.99595V5.996V5.99605V5.9961V5.99615V5.9962V5.99625V5.99629V5.99634V5.99639V5.99643V5.99648V5.99652V5.99657V5.99661V5.99666V5.9967V5.99675V5.99679V5.99683V5.99687V5.99692V5.99696V5.997V5.99704V5.99708V5.99712V5.99716V5.9972V5.99724V5.99728V5.99731V5.99735V5.99739V5.99743V5.99746V5.9975V5.99753V5.99757V5.99761V5.99764V5.99767V5.99771V5.99774V5.99778V5.99781V5.99784V5.99787V5.99791V5.99794V5.99797V5.998V5.99803V5.99806V5.99809V5.99812V5.99815V5.99818V5.99821V5.99824V5.99827V5.99829V5.99832V5.99835V5.99838V5.9984V5.99843V5.99845V5.99848V5.99851V5.99853V5.99856V5.99858V5.9986V5.99863V5.99865V5.99867V5.9987V5.99872V5.99874V5.99877V5.99879V5.99881V5.99883V5.99885V5.99887V5.99889V5.99891V5.99893V5.99895V5.99897V5.99899V5.99901V5.99903V5.99905V5.99907V5.99908V5.9991V5.99912V5.99914V5.99915V5.99917V5.99919V5.9992V5.99922V5.99923V5.99925V5.99926V5.99928V5.99929V5.99931V5.99932V5.99934V5.99935V5.99936V5.99938V5.99939V5.9994V5.99942V5.99943V5.99944V5.99945V5.99947V5.99948V5.99949V5.9995V5.99951V5.99952V5.99953V5.99954V5.99955V5.99956V5.99957V5.99958V5.99959V5.9996V5.99961V5.99962V5.99963V5.99964V5.99965V5.99966V5.99966V5.99967V5.99968V5.99969V5.99969V5.9997V5.99971V5.99972V5.99973V5.99974V5.99975V5.99977V5.99978V5.99979V5.9998V5.99981V5.99982V5.99983V5.99983V5.99984V5.99985V5.99986V5.99987V5.99987V5.99988V5.99989V5.9999V5.99991V5.99992V9.99992C12.0607 10.1044 12.0192 10.2046 11.9453 10.2785L12.1382 10.4713L11.9453 10.2785C11.8714 10.3524 11.7712 10.3939 11.6667 10.3939C11.5623 10.3939 11.4621 10.3524 11.3882 10.2785C11.3143 10.2046 11.2728 10.1044 11.2728 9.99992V6.66659V6.39386H11.0001H9.00008C8.54198 6.39386 8.10264 6.21188 7.77872 5.88795C7.45479 5.56403 7.27281 5.12469 7.27281 4.66659V2.66659ZM8.52626 3.41374L8.06069 2.94816V3.60659V4.66659C8.06069 4.91573 8.15966 5.15467 8.33583 5.33084C8.512 5.50701 8.75094 5.60598 9.00008 5.60598H10.0601H10.7185L10.2529 5.1404L8.52626 3.41374ZM13.9464 11.052L13.948 11.0536C13.985 11.0902 14.0143 11.1337 14.0343 11.1818L14.286 11.0769L14.0343 11.1818C14.0543 11.2298 14.0646 11.2812 14.0646 11.3333C14.0646 11.3853 14.0543 11.4367 14.0343 11.4848C14.0143 11.5328 13.985 11.5763 13.948 11.6129L13.9472 11.6137L11.2806 14.2804L11.2798 14.2812C11.2432 14.3181 11.1996 14.3474 11.1516 14.3674L11.2565 14.6192L11.1516 14.3674C11.1036 14.3874 11.0521 14.3977 11.0001 14.3977C10.9481 14.3977 10.8966 14.3874 10.8486 14.3674C10.8006 14.3474 10.757 14.3181 10.7204 14.2812L10.7196 14.2804L9.38626 12.9471C9.34943 12.9102 9.32021 12.8665 9.30028 12.8184C9.28034 12.7703 9.27008 12.7187 9.27008 12.6666C9.27008 12.6145 9.28034 12.5629 9.30028 12.5148C9.32021 12.4667 9.34943 12.4229 9.38626 12.3861C9.4231 12.3493 9.46683 12.32 9.51495 12.3001C9.56307 12.2802 9.61466 12.2699 9.66675 12.2699C9.71884 12.2699 9.77042 12.2802 9.81854 12.3001C9.86653 12.32 9.91014 12.3491 9.94691 12.3858C9.94702 12.3859 9.94713 12.386 9.94723 12.3861L10.8065 13.252L10.9996 13.4467L11.1932 13.2525L13.3866 11.0525L13.3871 11.052C13.4237 11.015 13.4672 10.9857 13.5152 10.9657L13.4104 10.714L13.5153 10.9657C13.5633 10.9457 13.6147 10.9354 13.6667 10.9354C13.7188 10.9354 13.7702 10.9457 13.8182 10.9657C13.8663 10.9857 13.9098 11.015 13.9464 11.052ZM9.00008 9.06052H5.00008C4.8956 9.06052 4.7954 9.01902 4.72152 8.94514C4.64765 8.87126 4.60614 8.77106 4.60614 8.66659C4.60614 8.56211 4.64765 8.46191 4.72152 8.38803C4.7954 8.31415 4.8956 8.27265 5.00008 8.27265H9.00008C9.10456 8.27265 9.20476 8.31415 9.27864 8.38803C9.35252 8.46191 9.39402 8.56211 9.39402 8.66659C9.39402 8.77107 9.35252 8.87126 9.27864 8.94514C9.20476 9.01902 9.10456 9.06052 9.00008 9.06052ZM4.72152 11.0547C4.7954 10.9808 4.8956 10.9393 5.00008 10.9393H7.66675C7.77123 10.9393 7.87143 10.9808 7.9453 11.0547C8.01918 11.1286 8.06069 11.2288 8.06069 11.3333C8.06069 11.4377 8.01918 11.5379 7.94531 11.6118C7.87143 11.6857 7.77123 11.7272 7.66675 11.7272H5.00008C4.8956 11.7272 4.7954 11.6857 4.72152 11.6118C4.64765 11.5379 4.60614 11.4377 4.60614 11.3333C4.60614 11.2288 4.64765 11.1286 4.72152 11.0547ZM5.66675 6.39386H5.00008C4.8956 6.39386 4.7954 6.35235 4.72152 6.27848C4.64765 6.2046 4.60614 6.1044 4.60614 5.99992C4.60614 5.89544 4.64765 5.79524 4.72152 5.72136C4.7954 5.64748 4.8956 5.60598 5.00008 5.60598H5.66675C5.77123 5.60598 5.87143 5.64748 5.94531 5.72136C6.01918 5.79524 6.06069 5.89544 6.06069 5.99992C6.06069 6.1044 6.01918 6.2046 5.94531 6.27848C5.87143 6.35235 5.77123 6.39386 5.66675 6.39386Z" fill="#0079ED" stroke="#0079ED" stroke-width="0.545455"/>
</g>
</svg>
