<svg width="24" height="25" viewBox="0 0 24 25" fill="none" xmlns="http://www.w3.org/2000/svg">
<g id="arrow-right-from-line">
<path id="arrow-right-from-line_2" d="M21.6919 12.7871C21.6539 12.8791 21.599 12.962 21.53 13.031L16.53 18.031C16.384 18.177 16.192 18.251 16 18.251C15.808 18.251 15.616 18.178 15.47 18.031C15.177 17.738 15.177 17.263 15.47 16.97L19.1899 13.25H7C6.586 13.25 6.25 12.914 6.25 12.5C6.25 12.086 6.586 11.75 7 11.75H19.189L15.469 8.03003C15.176 7.73703 15.176 7.26199 15.469 6.96899C15.762 6.67599 16.237 6.67599 16.53 6.96899L21.53 11.969C21.599 12.038 21.6539 12.1209 21.6919 12.2129C21.7679 12.3969 21.7679 12.6031 21.6919 12.7871ZM4 5.75C3.586 5.75 3.25 6.086 3.25 6.5V18.5C3.25 18.914 3.586 19.25 4 19.25C4.414 19.25 4.75 18.914 4.75 18.5V6.5C4.75 6.086 4.414 5.75 4 5.75Z" fill="#A0AEC0"/>
</g>
</svg>
