<svg width="39" height="39" viewBox="0 0 39 39" fill="none" xmlns="http://www.w3.org/2000/svg">
<rect x="0.574463" y="0.411133" width="38.37" height="38.37" rx="5.90308" fill="white" fill-opacity="0.13"/>
<path opacity="0.4" d="M25.6322 16.2316C25.7731 16.2051 25.906 16.3016 25.906 16.4455V23.7411C25.906 25.4013 25.0795 26.2351 23.4119 26.2351H15.1181C13.4505 26.2351 12.624 25.4013 12.624 23.7411V15.4399C12.624 13.7796 13.4505 12.9531 15.1181 12.9531H22.4135C22.5574 12.9531 22.6541 13.086 22.6275 13.2269C22.5899 13.4277 22.5774 13.6349 22.5899 13.8533C22.6637 15.1277 23.7248 16.1916 24.9984 16.2684C25.2197 16.2817 25.4293 16.2693 25.6322 16.2316Z" fill="white"/>
<path d="M15.5757 21.6229C15.434 21.6229 15.2923 21.569 15.1846 21.4606C14.9684 21.2444 14.9684 20.8939 15.1846 20.6777L17.244 18.6182C17.7473 18.115 18.5663 18.115 19.0696 18.6175L20.2421 19.787C20.3144 19.8586 20.431 19.8586 20.5033 19.787L22.5642 17.7261C22.7804 17.5099 23.1309 17.5099 23.3471 17.7261C23.5633 17.9423 23.5633 18.2928 23.3471 18.509L21.2862 20.5699C20.7837 21.0732 19.9639 21.0739 19.4607 20.5706L18.2882 19.4011C18.2158 19.3288 18.0993 19.3288 18.0269 19.4011L15.9675 21.4606C15.859 21.569 15.7174 21.6229 15.5757 21.6229Z" fill="white"/>
<path d="M25.1682 15.1664C25.9832 15.1664 26.6439 14.5057 26.6439 13.6906C26.6439 12.8756 25.9832 12.2148 25.1682 12.2148C24.3531 12.2148 23.6924 12.8756 23.6924 13.6906C23.6924 14.5057 24.3531 15.1664 25.1682 15.1664Z" fill="white"/>
</svg>
