<svg width="53" height="52" viewBox="0 0 53 52" fill="none" xmlns="http://www.w3.org/2000/svg">
<rect x="0.666504" width="52" height="52" rx="8" fill="white" fill-opacity="0.13"/>
<path opacity="0.4" d="M34 21V25.46C34 25.66 33.8 25.8 33.6 25.74C33.1 25.58 32.56 25.5 32 25.5C28.97 25.5 26.5 27.97 26.5 31C26.5 31.23 26.51 31.46 26.54 31.69C26.54 31.86 26.4 32 26.23 32H19C17 32 16 31 16 29V21C16 19 17 18 19 18H31C33 18 34 19 34 21Z" fill="white"/>
<path d="M25 28C26.6569 28 28 26.6569 28 25C28 23.3431 26.6569 22 25 22C23.3431 22 22 23.3431 22 25C22 26.6569 23.3431 28 25 28Z" fill="white"/>
<path d="M19 26C19.5523 26 20 25.5523 20 25C20 24.4477 19.5523 24 19 24C18.4477 24 18 24.4477 18 25C18 25.5523 18.4477 26 19 26Z" fill="white"/>
<path d="M32 27C29.79 27 28 28.79 28 31C28 33.21 29.79 35 32 35C34.21 35 36 33.21 36 31C36 28.79 34.21 27 32 27ZM33.42 32.42C33.33 32.52 33.2 32.57 33.07 32.57C32.94 32.57 32.81 32.52 32.72 32.42L31.65 31.35C31.55 31.26 31.5 31.13 31.5 31V29.5C31.5 29.22 31.72 29 32 29C32.28 29 32.5 29.22 32.5 29.5V30.79L33.42 31.72C33.62 31.91 33.62 32.23 33.42 32.42Z" fill="white"/>
</svg>
