<svg width="101" height="84" viewBox="0 0 101 84" fill="none" xmlns="http://www.w3.org/2000/svg">
<rect width="101" height="84" fill="#1E1E1E"/>
<g id="KYC" clip-path="url(#clip0_1_41397)">
<rect width="1440" height="982" transform="translate(-803 -518)" fill="white"/>
<g id="Right content" clip-path="url(#clip1_1_41397)">
<rect width="1180" height="982" transform="translate(-543 -518)" fill="#FBFBFD"/>
<g id="Transaction Type">
<g id="Base" filter="url(#filter0_d_1_41397)">
<rect x="-503" y="-304" width="1100" height="749" rx="16" fill="white"/>
</g>
<g id="Frame 645433">
<g id="Frame 645270">
<g id="11">
<g id="Group 736">
<path id="Vector" d="M51.165 64.5098C67.9897 64.5098 81.6298 50.8698 81.6298 33.985C81.6298 17.1001 67.9296 3.46007 51.165 3.46007C34.3403 3.46007 20.7002 17.1001 20.7002 33.985C20.7002 50.8698 34.3403 64.5098 51.165 64.5098Z" fill="#EAEEF9"/>
<path id="Vector_2" d="M79.6462 13.976C81.0069 13.976 82.1099 12.873 82.1099 11.5124C82.1099 10.1518 81.0069 9.04876 79.6462 9.04876C78.2856 9.04876 77.1826 10.1518 77.1826 11.5124C77.1826 12.873 78.2856 13.976 79.6462 13.976Z" fill="#E7EBF6"/>
<path id="Vector_3" d="M83.2518 4.36163C84.181 4.36163 84.9343 3.60836 84.9343 2.67916C84.9343 1.74995 84.181 0.996684 83.2518 0.996684C82.3226 0.996684 81.5693 1.74995 81.5693 2.67916C81.5693 3.60836 82.3226 4.36163 83.2518 4.36163Z" fill="#E7EBF6"/>
<path id="Vector_4" d="M22.3221 13.9159C23.2513 13.9159 24.0046 13.1626 24.0046 12.2334C24.0046 11.3042 23.2513 10.551 22.3221 10.551C21.3929 10.551 20.6396 11.3042 20.6396 12.2334C20.6396 13.1626 21.3929 13.9159 22.3221 13.9159Z" fill="#E7EBF6"/>
<path id="Vector_5" d="M12.0474 46.3631C13.7731 46.3631 15.172 44.9642 15.172 43.2386C15.172 41.5129 13.7731 40.114 12.0474 40.114C10.3218 40.114 8.92285 41.5129 8.92285 43.2386C8.92285 44.9642 10.3218 46.3631 12.0474 46.3631Z" fill="#E7EBF6"/>
<g id="Group">
<path id="Vector_6" d="M51.1461 47.5873L50.0816 47.5727C49.8687 47.5698 49.6587 47.354 49.6748 47.0912C49.691 46.8283 49.8568 46.6052 50.0697 46.6081L51.1342 46.6226C51.3471 46.6255 51.5571 46.8413 51.541 47.1042C51.5117 47.4169 51.359 47.5902 51.1461 47.5873Z" fill="#CED7E2"/>
<g id="Group 738">
<g id="Group_2">
<g id="Vector_7" filter="url(#filter1_d_1_41397)">
<path d="M46.3279 19.5399L59.2363 46.0447C59.6677 46.963 59.2865 48.0307 58.3682 48.4622L32.3287 60.7599C31.4104 61.1913 30.3427 60.8101 29.9112 59.8918L13.7306 25.5877C13.2992 24.6694 13.6804 23.6017 14.5987 23.1703L33.4443 14.2959L46.3279 19.5399Z" fill="url(#paint0_linear_1_41397)"/>
</g>
</g>
<path id="Vector_8" d="M33.4443 14.2958L36.8958 21.6421C37.3967 22.6526 38.6862 23.098 39.6968 22.5971L46.3279 19.5397" fill="#D5DDEA"/>
</g>
<g id="Group 737">
<g id="Group_3">
<g id="Vector_9" filter="url(#filter2_d_1_41397)">
<path d="M69.1936 22.1809L69.5672 51.6596C69.5658 52.6742 68.7657 53.4774 67.7511 53.4761L38.9537 53.4957C37.9392 53.4943 37.1359 52.6942 37.1372 51.6796L37.1297 13.751C37.1311 12.7364 37.9312 11.9332 38.9458 11.9345L59.7763 11.9437L69.1936 22.1809Z" fill="url(#paint1_linear_1_41397)"/>
</g>
</g>
<path id="Vector_10" d="M59.7764 11.9442L59.7656 20.0609C59.7878 21.1885 60.7643 22.1413 61.8919 22.1191L69.1937 22.1814" fill="#D5DDEA"/>
</g>
</g>
<g id="Group_4">
<g id="Group_5">
<g id="Vector_11" filter="url(#filter3_d_1_41397)">
<path d="M87.3143 35.2542L75.2717 62.1957C74.871 63.1046 73.7507 63.5027 72.855 63.052L46.7652 51.0211C45.8562 50.6204 45.4582 49.5001 45.8589 48.5912L61.7489 14.1742C62.1497 13.2653 63.2699 12.8673 64.1656 13.3179L83.1104 22.0695L87.3143 35.2542Z" fill="url(#paint2_linear_1_41397)"/>
</g>
</g>
<path id="Vector_12" d="M83.0603 22.0568L79.665 29.4383C79.1747 30.4838 79.6961 31.7435 80.7416 32.2338L87.314 35.2547" fill="#D5DDEA"/>
</g>
</g>
</g>
</g>
</g>
</g>
</g>
</g>
<defs>
<filter id="filter0_d_1_41397" x="-528" y="-319" width="1150" height="799" filterUnits="userSpaceOnUse" color-interpolation-filters="sRGB">
<feFlood flood-opacity="0" result="BackgroundImageFix"/>
<feColorMatrix in="SourceAlpha" type="matrix" values="0 0 0 0 0 0 0 0 0 0 0 0 0 0 0 0 0 0 127 0" result="hardAlpha"/>
<feOffset dy="10"/>
<feGaussianBlur stdDeviation="12.5"/>
<feColorMatrix type="matrix" values="0 0 0 0 0.592157 0 0 0 0 0.560784 0 0 0 0 0.686275 0 0 0 0.04 0"/>
<feBlend mode="normal" in2="BackgroundImageFix" result="effect1_dropShadow_1_41397"/>
<feBlend mode="normal" in="SourceGraphic" in2="effect1_dropShadow_1_41397" result="shape"/>
</filter>
<filter id="filter1_d_1_41397" x="0.334275" y="7.68621" width="72.2992" height="73.0801" filterUnits="userSpaceOnUse" color-interpolation-filters="sRGB">
<feFlood flood-opacity="0" result="BackgroundImageFix"/>
<feColorMatrix in="SourceAlpha" type="matrix" values="0 0 0 0 0 0 0 0 0 0 0 0 0 0 0 0 0 0 127 0" result="hardAlpha"/>
<feOffset dy="6.60972"/>
<feGaussianBlur stdDeviation="6.60972"/>
<feColorMatrix type="matrix" values="0 0 0 0 0.397708 0 0 0 0 0.47749 0 0 0 0 0.575 0 0 0 0.27 0"/>
<feBlend mode="normal" in2="BackgroundImageFix" result="effect1_dropShadow_1_41397"/>
<feBlend mode="normal" in="SourceGraphic" in2="effect1_dropShadow_1_41397" result="shape"/>
</filter>
<filter id="filter2_d_1_41397" x="23.9104" y="5.32479" width="58.8764" height="68.0001" filterUnits="userSpaceOnUse" color-interpolation-filters="sRGB">
<feFlood flood-opacity="0" result="BackgroundImageFix"/>
<feColorMatrix in="SourceAlpha" type="matrix" values="0 0 0 0 0 0 0 0 0 0 0 0 0 0 0 0 0 0 127 0" result="hardAlpha"/>
<feOffset dy="6.60972"/>
<feGaussianBlur stdDeviation="6.60972"/>
<feColorMatrix type="matrix" values="0 0 0 0 0.397708 0 0 0 0 0.47749 0 0 0 0 0.575 0 0 0 0.27 0"/>
<feBlend mode="normal" in2="BackgroundImageFix" result="effect1_dropShadow_1_41397"/>
<feBlend mode="normal" in="SourceGraphic" in2="effect1_dropShadow_1_41397" result="shape"/>
</filter>
<filter id="filter3_d_1_41397" x="32.4837" y="6.52186" width="68.0502" height="76.5456" filterUnits="userSpaceOnUse" color-interpolation-filters="sRGB">
<feFlood flood-opacity="0" result="BackgroundImageFix"/>
<feColorMatrix in="SourceAlpha" type="matrix" values="0 0 0 0 0 0 0 0 0 0 0 0 0 0 0 0 0 0 127 0" result="hardAlpha"/>
<feOffset dy="6.60972"/>
<feGaussianBlur stdDeviation="6.60972"/>
<feColorMatrix type="matrix" values="0 0 0 0 0.397708 0 0 0 0 0.47749 0 0 0 0 0.575 0 0 0 0.27 0"/>
<feBlend mode="normal" in2="BackgroundImageFix" result="effect1_dropShadow_1_41397"/>
<feBlend mode="normal" in="SourceGraphic" in2="effect1_dropShadow_1_41397" result="shape"/>
</filter>
<linearGradient id="paint0_linear_1_41397" x1="32.3517" y1="13.4254" x2="40.872" y2="59.7512" gradientUnits="userSpaceOnUse">
<stop stop-color="#FDFEFF"/>
<stop offset="0.9964" stop-color="#ECF0F5"/>
</linearGradient>
<linearGradient id="paint1_linear_1_41397" x1="59.1592" y1="10.6904" x2="47.1114" y2="56.2264" gradientUnits="userSpaceOnUse">
<stop stop-color="#FDFEFF"/>
<stop offset="0.9964" stop-color="#ECF0F5"/>
</linearGradient>
<linearGradient id="paint2_linear_1_41397" x1="73.7603" y1="14.7187" x2="61.6136" y2="60.6287" gradientUnits="userSpaceOnUse">
<stop stop-color="#FDFEFF"/>
<stop offset="0.9964" stop-color="#ECF0F5"/>
</linearGradient>
<clipPath id="clip0_1_41397">
<rect width="1440" height="982" fill="white" transform="translate(-803 -518)"/>
</clipPath>
<clipPath id="clip1_1_41397">
<rect width="1180" height="982" fill="white" transform="translate(-543 -518)"/>
</clipPath>
</defs>
</svg>
