<svg width="24" height="25" viewBox="0 0 24 25" fill="none" xmlns="http://www.w3.org/2000/svg">
<g id="settings">
<path id="settings_2" d="M11.9998 8.75003C9.9318 8.75003 8.2498 10.432 8.2498 12.5C8.2498 14.568 9.9318 16.25 11.9998 16.25C14.0678 16.25 15.7498 14.568 15.7498 12.5C15.7498 10.432 14.0678 8.75003 11.9998 8.75003ZM11.9998 14.75C10.7588 14.75 9.7498 13.741 9.7498 12.5C9.7498 11.259 10.7588 10.25 11.9998 10.25C13.2408 10.25 14.2498 11.259 14.2498 12.5C14.2498 13.741 13.2408 14.75 11.9998 14.75ZM21.2078 14.453C20.5138 14.051 20.0818 13.303 20.0808 12.5C20.0798 11.699 20.5088 10.952 21.2118 10.545C21.7268 10.246 21.9028 9.58302 21.6048 9.06702L19.9328 6.18103C19.6348 5.66603 18.9718 5.48904 18.4558 5.78604C17.7568 6.18904 16.8878 6.18904 16.1868 5.78204C15.4958 5.38104 15.0658 4.63604 15.0658 3.83704C15.0658 3.23804 14.5778 2.75104 13.9788 2.75104H10.0238C9.42379 2.75104 8.93681 3.23804 8.93681 3.83704C8.93681 4.63604 8.5068 5.38103 7.8138 5.78403C7.1148 6.18903 6.24681 6.19002 5.54781 5.78702C5.03081 5.48902 4.36882 5.66704 4.07082 6.18204L2.3968 9.07105C2.0988 9.58605 2.27579 10.248 2.79579 10.55C3.48879 10.951 3.92081 11.698 3.92281 12.499C3.92481 13.301 3.4948 14.05 2.7928 14.457C2.5428 14.602 2.3628 14.835 2.2888 15.115C2.2148 15.394 2.25281 15.685 2.39781 15.936L4.0688 18.82C4.3668 19.336 5.02981 19.515 5.54781 19.216C6.24681 18.813 7.11381 18.814 7.80281 19.213L7.80479 19.214C7.80779 19.216 7.8108 19.218 7.8148 19.22C8.5058 19.621 8.93479 20.366 8.93379 21.166C8.93379 21.765 9.42079 22.252 10.0198 22.252H13.9788C14.5778 22.252 15.0648 21.765 15.0648 21.167C15.0648 20.367 15.4948 19.622 16.1888 19.219C16.8868 18.814 17.7548 18.812 18.4548 19.216C18.9708 19.514 19.6328 19.337 19.9318 18.822L21.6058 15.933C21.9028 15.416 21.7258 14.753 21.2078 14.453ZM18.8308 17.727C17.7408 17.252 16.4758 17.317 15.4338 17.92C14.4008 18.519 13.7188 19.578 13.5868 20.75H10.4098C10.2798 19.578 9.59579 18.517 8.56279 17.919C7.52279 17.316 6.25581 17.252 5.16881 17.727L3.89281 15.524C4.84781 14.821 5.42479 13.693 5.42079 12.493C5.41779 11.301 4.8418 10.181 3.8918 9.47803L5.16881 7.27402C6.25681 7.74802 7.52381 7.68402 8.56581 7.08002C9.59781 6.48202 10.2798 5.42204 10.4118 4.25104H13.5868C13.7178 5.42304 14.4008 6.48203 15.4358 7.08203C16.4748 7.68503 17.7418 7.74902 18.8308 7.27502L20.1078 9.47803C19.1548 10.18 18.5788 11.306 18.5808 12.504C18.5818 13.698 19.1578 14.82 20.1088 15.525L18.8308 17.727Z" fill="#718096"/>
</g>
</svg>
